<svg width="233" height="93" viewBox="0 0 233 93" fill="none" xmlns="http://www.w3.org/2000/svg">
<path d="M62.5715 88.5522H232.672" stroke="#006065" stroke-width="7"/>
<path d="M62.6282 74.9V0H93.4442C100.078 0 105.749 1.07 110.457 3.21C115.237 5.35 118.91 8.41733 121.478 12.412C124.046 16.4067 125.33 21.1503 125.33 26.643C125.33 32.1357 124.046 36.8793 121.478 40.874C118.91 44.7973 115.237 47.829 110.457 49.969C105.749 52.0377 100.078 53.072 93.4442 53.072H70.3322L76.5382 46.759V74.9H62.6282ZM111.634 74.9L92.6952 47.722H107.568L126.614 74.9H111.634ZM76.5382 48.257L70.3322 41.623H92.8022C98.9368 41.623 103.538 40.3033 106.605 37.664C109.744 35.0247 111.313 31.351 111.313 26.643C111.313 21.8637 109.744 18.19 106.605 15.622C103.538 13.054 98.9368 11.77 92.8022 11.77H70.3322L76.5382 4.922V48.257Z" fill="#006065"/>
<path d="M24.824 74.9V11.77H0L0 0H63.558V11.77H38.734V74.9H24.824Z" fill="#006065"/>
<path d="M130.655 74.9L141.995 49.7H146.603L157.979 74.9H153.083L143.327 52.184H145.199L135.479 74.9H130.655ZM135.875 69.068L137.135 65.396H150.743L152.003 69.068H135.875Z" fill="#006065"/>
<path d="M172.496 75.26C170.576 75.26 168.788 74.948 167.132 74.324C165.5 73.676 164.072 72.776 162.848 71.624C161.648 70.448 160.712 69.068 160.04 67.484C159.368 65.9 159.032 64.172 159.032 62.3C159.032 60.428 159.368 58.7 160.04 57.116C160.712 55.532 161.66 54.164 162.884 53.012C164.108 51.836 165.536 50.936 167.168 50.312C168.8 49.664 170.588 49.34 172.532 49.34C174.596 49.34 176.48 49.7 178.184 50.42C179.888 51.116 181.328 52.16 182.504 53.552L179.48 56.396C178.568 55.412 177.548 54.68 176.42 54.2C175.292 53.696 174.068 53.444 172.748 53.444C171.428 53.444 170.216 53.66 169.112 54.092C168.032 54.524 167.084 55.136 166.268 55.928C165.476 56.72 164.852 57.656 164.396 58.736C163.964 59.816 163.748 61.004 163.748 62.3C163.748 63.596 163.964 64.784 164.396 65.864C164.852 66.944 165.476 67.88 166.268 68.672C167.084 69.464 168.032 70.076 169.112 70.508C170.216 70.94 171.428 71.156 172.748 71.156C174.068 71.156 175.292 70.916 176.42 70.436C177.548 69.932 178.568 69.176 179.48 68.168L182.504 71.048C181.328 72.416 179.888 73.46 178.184 74.18C176.48 74.9 174.584 75.26 172.496 75.26Z" fill="#006065"/>
<path d="M191.308 60.176H203.836V64.028H191.308V60.176ZM191.668 70.976H205.888V74.9H186.988V49.7H205.384V53.624H191.668V70.976Z" fill="#006065"/>
<path d="M211.106 74.9V49.7H221.474C223.706 49.7 225.614 50.06 227.198 50.78C228.806 51.5 230.042 52.532 230.906 53.876C231.77 55.22 232.202 56.816 232.202 58.664C232.202 60.512 231.77 62.108 230.906 63.452C230.042 64.772 228.806 65.792 227.198 66.512C225.614 67.208 223.706 67.556 221.474 67.556H213.698L215.786 65.432V74.9H211.106ZM227.594 74.9L221.222 65.756H226.226L232.634 74.9H227.594ZM215.786 65.936L213.698 63.704H221.258C223.322 63.704 224.87 63.26 225.902 62.372C226.958 61.484 227.486 60.248 227.486 58.664C227.486 57.056 226.958 55.82 225.902 54.956C224.87 54.092 223.322 53.66 221.258 53.66H213.698L215.786 51.356V65.936Z" fill="#006065"/>
</svg>
